PathFileType	4	(X/Y/Z)	/Users/itak/Documents/Research/Walk-IL/dataset/trc/00065_00006.trc
DataRate	CameraRate	NumFrames	NumMarkers	Units	OrigDataRate	OrigDataStartFrame	OrigNumFrames
100.000000	100.000000	4	53	mm	100.000000	185	741
Frame#	Time	RPSI			LPSI			L3			STRN			T10			C7			CLAV			RBAK			LBAK			LSHO			LUPA			LAEL			LAOL			LWTS			LWPS			LFRA			LIFD			LHPS			LHTS			RSHO			RUPA			RAEL			RAOL			RWTS			RWPS			RFRA			RIFD			RHTS			RHPS			RBHD			LFHD			RFHD			LBHD			LHIP			RHIP			RASI			LASI			LKNE			LTHI			LANK			LTIP			LTOE			LMT1			LMT5			LHEE			RKNE			RTHI			RANK			RTIP			RTOE			RMT1			RMT5			RHEE			
		X1	Y1	Z1	X2	Y2	Z2	X3	Y3	Z3	X4	Y4	Z4	X5	Y5	Z5	X6	Y6	Z6	X7	Y7	Z7	X8	Y8	Z8	X9	Y9	Z9	X10	Y10	Z10	X11	Y11	Z11	X12	Y12	Z12	X13	Y13	Z13	X14	Y14	Z14	X15	Y15	Z15	X16	Y16	Z16	X17	Y17	Z17	X18	Y18	Z18	X19	Y19	Z19	X20	Y20	Z20	X21	Y21	Z21	X22	Y22	Z22	X23	Y23	Z23	X24	Y24	Z24	X25	Y25	Z25	X26	Y26	Z26	X27	Y27	Z27	X28	Y28	Z28	X29	Y29	Z29	X30	Y30	Z30	X31	Y31	Z31	X32	Y32	Z32	X33	Y33	Z33	X34	Y34	Z34	X35	Y35	Z35	X36	Y36	Z36	X37	Y37	Z37	X38	Y38	Z38	X39	Y39	Z39	X40	Y40	Z40	X41	Y41	Z41	X42	Y42	Z42	X43	Y43	Z43	X44	Y44	Z44	X45	Y45	Z45	X46	Y46	Z46	X47	Y47	Z47	X48	Y48	Z48	X49	Y49	Z49	X50	Y50	Z50	X51	Y51	Z51	X52	Y52	Z52	X53	Y53	Z53	

186	1.85	445.8583068847656	1019.041076660156	1112.164916992188	336.8551025390625	1012.880859375	976.7073364257812	391.2785949707031	1075.68310546875	1035.869140625	618.3768920898438	1268.997924804688	910.1812744140625	378.8822631835938	1208.860595703125	1039.292114257812	441.4664611816406	1474.553100585938	1016.874633789062	595.2218017578125	1383.861328125	928.0845336914062	416.0361938476562	1334.328491210938	1106.7607421875	370.2158203125	1444.026123046875	939.552490234375	425.1537475585938	1449.025634765625	826.8600463867188	362.8567504882812	1330.56201171875	762.6015014648438	353.9380493164062	1117.792236328125	719.8970947265625	344.775390625	1096.2861328125	824.1452026367188	484.479248046875	889.6321411132812	715.1027221679688	405.7684020996094	872.3983154296875	691.83642578125	375.2449035644531	1011.424072265625	695.6695556640625	523.6676025390625	706.8395385742188	716.75439453125	443.8962707519531	794.8622436523438	675.2536010742188	510.4049682617188	809.8311767578125	697.9161376953125	578.5267944335938	1430.777221679688	1138.1865234375	590.9685668945312	1364.178588867188	1200.438110351562	548.1561889648438	1114.839965820312	1266.081298828125	523.4434814453125	1082.985229492188	1173.38720703125	630.9158325195312	842.6488037109375	1197.870971679688	584.811279296875	840.7051391601562	1272.101928710938	554.1559448242188	1032.863403320312	1276.853393554688	591.8508911132812	655.81298828125	1196.016967773438	634.1250610351562	735.5679931640625	1199.616821289062	602.1119995117188	746.34375	1268.424560546875	467.6842346191406	1650.616577148438	1012.3310546875	645.5645751953125	1677.52978515625	892.2371215820312	528.44970703125	1677.11767578125	846.16796875	599.1776123046875	1642.779541015625	1053.71484375	370.2840881347656	945.8193359375	844.0503540039062	543.4678955078125	948.1241455078125	1141.04248046875	633.6058959960938	964.1835327148438	1053.890258789062	492.1199951171875	956.7540893554688	827.3952026367188	551.2708740234375	495.266357421875	899.043212890625	472.4442443847656	620.7432861328125	862.7296142578125	475.4107055664062	47.21343231201172	993.3409423828125	510.7740478515625	249.5303344726562	940.6697387695312	670.13427734375	41.91472625732422	928.572998046875	641.8887939453125	34.80326461791992	992.2271118164062	557.31103515625	43.61339950561523	921.3209228515625	456.4370727539062	44.42558288574219	1082.88427734375	700.7230834960938	516.470947265625	1041.9599609375	651.384765625	785.79931640625	1084.31201171875	391.5867309570312	205.0190734863281	1272.3984375	641.21337890625	421.2436828613281	1097.80419921875	521.62744140625	78.21631622314453	1166.488525390625	461.9288330078125	110.2483139038086	1150.50830078125	484.7434387207031	130.3267517089844	1245.920043945312	336.294189453125	232.985595703125	1235.678100585938	
187	1.86	454.144775390625	1019.4248046875	1107.503051757812	343.1337585449219	1013.314880371094	973.921142578125	398.0753784179688	1076.356079101562	1031.957641601562	623.347900390625	1269.664184570312	903.7431030273438	385.4813537597656	1209.253051757812	1035.401611328125	447.5634460449219	1475.047607421875	1012.632873535156	600.358642578125	1384.493896484375	922.0821533203125	423.2257385253906	1334.682495117188	1102.572509765625	375.4591064453125	1444.548828125	936.0458374023438	429.1838989257812	1449.692138671875	822.7992553710938	366.2509155273438	1331.195434570312	759.3043212890625	357.2904052734375	1118.477783203125	716.2196044921875	348.9977111816406	1096.750366210938	820.3140258789062	490.776123046875	891.9750366210938	710.7314453125	412.1244812011719	873.6001586914062	688.034423828125	379.7471313476562	1012.297973632812	691.816650390625	532.3897094726562	709.7105712890625	712.6956787109375	451.1828918457031	796.4594116210938	671.6177368164062	517.6168823242188	812.4346923828125	693.6080322265625	585.9468383789062	1431.259521484375	1132.374877929688	599.0435791015625	1364.760986328125	1194.467895507812	556.4122314453125	1115.772094726562	1261.011840820312	530.49267578125	1083.909790039062	1168.754638671875	637.5263671875	843.2072143554688	1192.1767578125	592.2951049804688	841.5123901367188	1266.928955078125	562.272705078125	1033.778930664062	1271.846435546875	597.5027465820312	656.5194091796875	1190.89501953125	640.1825561523438	736.1112670898438	1193.926025390625	609.1148681640625	747.066650390625	1263.133544921875	473.4705810546875	1651.162963867188	1007.633972167969	650.160888671875	1678.203369140625	885.864013671875	532.6168823242188	1677.689086914062	840.9469604492188	605.3424682617188	1643.456176757812	1047.78466796875	374.1533813476562	946.114501953125	840.7548828125	552.4805297851562	948.8930053710938	1134.751953125	641.1851196289062	965.3545532226562	1046.094848632812	495.7580261230469	957.2343139648438	822.15966796875	552.0690307617188	494.6011352539062	897.4430541992188	474.3289794921875	620.5205078125	860.9927978515625	475.4761352539062	47.25190734863281	993.3931274414062	511.1524658203125	249.3536224365234	940.1980590820312	670.155029296875	41.89551544189453	928.5657348632812	641.9122314453125	34.77868270874023	992.2491455078125	557.3474731445312	43.60940170288086	921.3668823242188	456.6508483886719	44.42414093017578	1083.050903320312	713.1591186523438	519.6469116210938	1026.965942382812	661.8817749023438	788.0582885742188	1073.975708007812	417.9658203125	197.4490051269531	1261.1123046875	657.1051635742188	422.3714904785156	1083.24853515625	549.7315063476562	76.90181732177734	1149.791381835938	488.4009399414062	106.9536514282227	1135.924926757812	513.056396484375	126.6114196777344	1230.78125	360.6442565917969	223.7105560302734	1226.347778320312	
188	1.87	462.4660034179688	1019.6484375	1102.835571289062	349.4135437011719	1013.578125	971.2288818359375	404.838623046875	1076.981811523438	1028.161499023438	628.2464599609375	1270.198120117188	897.2772827148438	392.0291442871094	1209.546020507812	1031.522705078125	453.6300659179688	1475.43359375	1008.326171875	605.4109497070312	1384.997802734375	916.0396728515625	430.3834228515625	1334.946899414062	1098.352172851562	380.6647338867188	1444.945556640625	932.5122680664062	433.1694030761719	1450.20849609375	818.7056274414062	369.6211242675781	1331.68505859375	755.9517822265625	360.5978698730469	1119.016235351562	712.5335083007812	353.1589660644531	1097.089477539062	816.5144653320312	497.0147399902344	894.2267456054688	706.3557739257812	418.4591064453125	874.69140625	684.2013549804688	384.1982727050781	1013.040893554688	687.9403686523438	541.100830078125	712.5307006835938	708.65380859375	458.4412536621094	797.9532470703125	667.9717407226562	524.7750854492188	814.9663696289062	689.3028564453125	593.3267822265625	1431.6435546875	1126.4892578125	607.1109008789062	1365.239501953125	1188.41064453125	564.6751098632812	1116.611694335938	1255.912353515625	537.4911499023438	1084.769409179688	1164.1298828125	644.109375	843.6848754882812	1186.434204101562	599.775634765625	842.2144165039062	1261.711303710938	570.407470703125	1034.603393554688	1266.816284179688	603.2222900390625	657.1426391601562	1185.723510742188	646.2779541015625	736.5877075195312	1188.189086914062	616.1363525390625	747.697265625	1257.78564453125	479.231689453125	1651.59716796875	1002.88037109375	654.7479248046875	1678.756469726562	879.4695434570312	536.7949829101562	1678.171875	835.6830444335938	611.4629516601562	1643.994384765625	1041.811279296875	378.0032043457031	946.296630859375	837.5569458007812	561.536865234375	949.503662109375	1128.439331054688	648.755615234375	966.4475708007812	1038.290771484375	499.3440856933594	957.5774536132812	817.009521484375	552.982666015625	493.9251708984375	895.876708984375	476.3190612792969	620.2850952148438	859.3538208007812	475.5620422363281	47.3020133972168	993.4579467773438	511.611572265625	249.1771697998047	939.7498168945312	670.1842041015625	41.86297607421875	928.5369262695312	641.9498901367188	34.75963973999023	992.269775390625	557.3946533203125	43.60562515258789	921.4193115234375	456.8334045410156	44.44642639160156	1083.209594726562	724.9213256835938	522.7440795898438	1012.001586914062	672.11279296875	790.1715087890625	1063.576049804688	444.6454162597656	189.3176574707031	1248.845581054688	672.5084228515625	423.3101501464844	1068.511596679688	577.5580444335938	75.42695617675781	1131.77783203125	514.724853515625	103.4246673583984	1120.182006835938	541.2788696289062	122.465217590332	1214.461059570312	385.2906188964844	213.7953948974609	1216.266845703125	
189	1.88	470.8319702148438	1019.713134765625	1098.1708984375	355.7191772460938	1013.689697265625	968.6207275390625	411.6026611328125	1077.535766601562	1024.488159179688	633.0741577148438	1270.607666015625	890.7811889648438	398.5322875976562	1209.732177734375	1027.655029296875	459.65869140625	1475.70263671875	1003.949523925781	610.3824462890625	1385.378051757812	909.9526977539062	437.5106811523438	1335.115112304688	1094.098876953125	385.83154296875	1445.206787109375	928.9552612304688	437.096923828125	1450.572143554688	814.5823364257812	372.9599304199219	1332.025634765625	752.5399780273438	363.8755493164062	1119.3984375	708.8495483398438	357.2858581542969	1097.308959960938	812.7586059570312	503.1938781738281	896.3709716796875	701.9772338867188	424.7799377441406	875.6797485351562	680.3050537109375	388.6201782226562	1013.654174804688	684.0338134765625	549.7659301757812	715.2744140625	704.5946655273438	465.6790161132812	799.3613891601562	664.2489013671875	531.8798217773438	817.413330078125	684.9892578125	600.662353515625	1431.930541992188	1120.528076171875	615.1514282226562	1365.617919921875	1182.268798828125	572.9320678710938	1117.35595703125	1250.765991210938	544.4671630859375	1085.560302734375	1159.492919921875	650.6748046875	844.0787353515625	1180.656616210938	607.246337890625	842.8148193359375	1256.453979492188	578.54833984375	1035.334716796875	1261.745239257812	609.0155639648438	657.6767578125	1180.526123046875	652.4199829101562	736.9852905273438	1182.430419921875	623.1731567382812	748.2373657226562	1252.39794921875	484.9744567871094	1651.931518554688	998.059814453125	659.3346557617188	1679.177368164062	873.0455932617188	540.9885864257812	1678.554321289062	830.3653564453125	617.540771484375	1644.398681640625	1035.789794921875	381.8291320800781	946.3781127929688	834.4437255859375	570.646240234375	949.9527587890625	1122.101928710938	656.3109741210938	967.4412841796875	1030.464721679688	502.8882446289062	957.7954711914062	811.9326782226562	554.0040283203125	493.2369384765625	894.315673828125	478.384521484375	620.0367431640625	857.7479248046875	475.6615295410156	47.35942077636719	993.52685546875	512.1403198242188	248.9923706054688	939.2994995117188	670.2216186523438	41.81633377075195	928.4864501953125	641.998291015625	34.75382995605469	992.2811279296875	557.4472045898438	43.59686660766602	921.4714965820312	456.9299621582031	44.5208625793457	1083.329467773438	736.054931640625	525.73095703125	997.0883178710938	682.0560302734375	792.1015625	1053.140625	471.5706481933594	180.7188720703125	1235.51611328125	687.4487915039062	424.043212890625	1053.574829101562	604.916748046875	73.85883331298828	1112.377319335938	540.7583618164062	99.76229095458984	1103.21484375	569.310546875	117.9864807128906	1196.911254882812	410.2147827148438	203.3965911865234	1205.369018554688	
